<?xml version="1.0" encoding="UTF-8"?>
<svg width="128" height="128" version="1.1" viewBox="0 0 33.867 33.867" xmlns="http://www.w3.org/2000/svg" xmlns:cc="http://creativecommons.org/ns#" xmlns:dc="http://purl.org/dc/elements/1.1/" xmlns:rdf="http://www.w3.org/1999/02/22-rdf-syntax-ns#">
 <metadata>
  <rdf:RDF>
   <cc:Work rdf:about="">
    <dc:format>image/svg+xml</dc:format>
    <dc:type rdf:resource="http://purl.org/dc/dcmitype/StillImage"/>
    <dc:title/>
   </cc:Work>
  </rdf:RDF>
 </metadata>
 <g fill="#221f29" stroke="#ff6266" stroke-linecap="round" stroke-linejoin="round">
  <circle cx="5.8131" cy="27.729" r="3.6661" stop-color="#000000" style="paint-order:fill markers stroke"/>
  <path d="m5.1918 12.403v5.185a10.411 10.411 0 0 1 5.7401 2.2885 10.411 10.411 0 0 1 3.6825 9.9939h5.0379c0.53102-5.1983-1.3754-10.708-5.4611-14.017-2.5387-2.0562-5.7389-3.2746-8.9995-3.4507z" stop-color="#000000" style="paint-order:fill markers stroke"/>
  <path d="m5.1378 2.7377-0.10023 4.7442c3.2112 0.22131 12.785 2.8662 15.789 6.0219 3.8342 4.3062 4.7917 10.708 4.8269 16.165l5.8295 0.06682c0.076662-7.201-1.9686-14.454-6.8438-20.213-3.1787-4.2057-14.518-6.5481-19.502-6.7852z" stop-color="#000000" style="paint-order:fill markers stroke"/>
 </g>
</svg>
